<svg width="64" height="48" viewBox="0 0 64 48" fill="none" xmlns="http://www.w3.org/2000/svg">
  <path d="M8 12.5L32 30L56 12.5V37C56 38.6569 54.6569 40 53 40H47V19.5L32 30.25L17 19.5V40H11C9.34315 40 8 38.6569 8 37V12.5Z" fill="#4285F4"/>
  <path d="M8 12.5C8 10.8431 9.34315 9.5 11 9.5H53C54.6569 9.5 56 10.8431 56 12.5L32 30L8 12.5Z" fill="#EA4335"/>
  <path d="M8 37V12.5L20.5 21.6V40H11C9.34315 40 8 38.6569 8 37Z" fill="#34A853"/>
  <path d="M56 37V12.5L43.5 21.6V40H53C54.6569 40 56 38.6569 56 37Z" fill="#FBBC04"/>
  <path d="M20.5 40V21.6L32 30L43.5 21.6V40H20.5Z" fill="#FFFFFF"/>
</svg>
